<svg width="68" height="67" viewBox="0 0 68 67" fill="none" xmlns="http://www.w3.org/2000/svg">
<path fill-rule="evenodd" clip-rule="evenodd" d="M6.83752 19.1211C6.93444 19.032 7.04957 18.9613 7.17632 18.913C7.30307 18.8648 7.43896 18.84 7.57619 18.84C7.71342 18.84 7.84931 18.8648 7.97606 18.913C8.10281 18.9613 8.21794 19.032 8.31486 19.1211L20.096 29.9283L31.8772 19.1211C31.9742 19.0321 32.0893 18.9615 32.2161 18.9134C32.3428 18.8652 32.4787 18.8405 32.6158 18.8405C32.753 18.8405 32.8889 18.8652 33.0156 18.9134C33.1423 18.9615 33.2575 19.0321 33.3545 19.1211C33.4515 19.2101 33.5285 19.3157 33.581 19.4319C33.6335 19.5482 33.6605 19.6728 33.6605 19.7986C33.6605 19.9244 33.6335 20.049 33.581 20.1652C33.5285 20.2815 33.4515 20.3871 33.3545 20.4761L20.8347 31.9588C20.7378 32.048 20.6226 32.1187 20.4959 32.1669C20.3691 32.2151 20.2332 32.24 20.096 32.24C19.9588 32.24 19.8229 32.2151 19.6961 32.1669C19.5694 32.1187 19.4543 32.048 19.3573 31.9588L6.83752 20.4761C6.74036 20.3872 6.66327 20.2816 6.61068 20.1653C6.55808 20.0491 6.53101 19.9244 6.53101 19.7986C6.53101 19.6727 6.55808 19.5481 6.61068 19.4318C6.66327 19.3156 6.74036 19.21 6.83752 19.1211Z" fill="#CCC5B9" fill-opacity="0.62"/>
</svg>
