<svg width="32" height="32" viewBox="0 0 32 32" fill="none" xmlns="http://www.w3.org/2000/svg">
<g id="MaterialSymbolsFolderCopyOutline 2">
<path id="Vector" d="M3.99992 28C3.26659 28 2.63859 27.7386 2.11592 27.216C1.59325 26.6933 1.33237 26.0657 1.33325 25.3333V7.99996H3.99992V25.3333H26.6666V28H3.99992ZM9.33325 22.6666C8.59992 22.6666 7.97192 22.4053 7.44925 21.8826C6.92659 21.36 6.6657 20.7324 6.66659 20V5.33329C6.66659 4.59996 6.92792 3.97196 7.45059 3.44929C7.97325 2.92663 8.60081 2.66574 9.33325 2.66663H15.9999L18.6666 5.33329H27.9999C28.7333 5.33329 29.3613 5.59463 29.8839 6.11729C30.4066 6.63996 30.6675 7.26752 30.6666 7.99996V20C30.6666 20.7333 30.4053 21.3613 29.8826 21.884C29.3599 22.4066 28.7324 22.6675 27.9999 22.6666H9.33325ZM9.33325 20H27.9999V7.99996H17.5666L14.8999 5.33329H9.33325V20Z" fill="#CCC5B9" fill-opacity="0.62"/>
</g>
</svg>
